<?xml version="1.0" encoding="utf-8"?>
<!-- Generator: Adobe Illustrator 26.5.0, SVG Export Plug-In . SVG Version: 6.00 Build 0)  -->
<svg version="1.1" xmlns="http://www.w3.org/2000/svg" xmlns:xlink="http://www.w3.org/1999/xlink" x="0px" y="0px"
	 viewBox="0 0 600 600" style="enable-background:new 0 0 600 600;" xml:space="preserve">
<style type="text/css">
	.st0{fill:none;stroke:#FFFFFF;stroke-width:2.8195;stroke-miterlimit:10;}
	.st1{fill:#FFFFFF;}
	.st2{fill:#AA6535;}
	.st3{clip-path:url(#SVGID_00000106832096130656941710000014337004888426958740_);fill:#FFFFFF;}
	.st4{clip-path:url(#SVGID_00000106832096130656941710000014337004888426958740_);fill:#1F357E;}
	.st5{clip-path:url(#SVGID_00000142173015366062650650000003912955106656043663_);fill:#DC1C37;}
	.st6{clip-path:url(#SVGID_00000142173015366062650650000003912955106656043663_);fill:#FFFFFF;}
	.st7{clip-path:url(#SVGID_00000142173015366062650650000003912955106656043663_);fill:#192967;}
	.st8{clip-path:url(#SVGID_00000039129462726378719680000008225819472172024468_);fill:#ED2923;}
	.st9{clip-path:url(#SVGID_00000039129462726378719680000008225819472172024468_);fill:#FFFFFF;}
	.st10{clip-path:url(#SVGID_00000107562399007924608120000006281267351906920119_);fill:#BE003A;}
	.st11{clip-path:url(#SVGID_00000107562399007924608120000006281267351906920119_);fill:#FFFFFF;}
	.st12{clip-path:url(#SVGID_00000018959736274048668410000016741026072286501510_);fill:#C6001E;}
	.st13{clip-path:url(#SVGID_00000018959736274048668410000016741026072286501510_);fill:#FFFFFF;}
	.st14{clip-path:url(#SVGID_00000098911603410885617610000014765903394576157585_);fill:#2D5A95;}
	.st15{clip-path:url(#SVGID_00000098911603410885617610000014765903394576157585_);fill:#F3D02F;}
</style>
<g id="Layer_1">
</g>
<g id="Layer_2">
	<g>
		<path class="st0" d="M162.8,513L162.8,513c-23.8,0-43.1-19.3-43.1-43.1v-38.4c0-23.8,19.3-43.1,43.1-43.1h0
			c23.8,0,43.1,19.3,43.1,43.1v38.4C205.9,493.7,186.6,513,162.8,513z"/>
		<g>
			<circle class="st1" cx="186.1" cy="443.7" r="5.1"/>
			<circle class="st1" cx="139.6" cy="443.7" r="5.1"/>
		</g>
		<path class="st0" d="M139.6,467.2c0,0,6.1,11,23.3,11s23.3-11,23.3-11"/>
	</g>
	<g>
		<path class="st0" d="M445.3,513L445.3,513c-23.8,0-43.1-19.3-43.1-43.1v-38.4c0-23.8,19.3-43.1,43.1-43.1h0
			c23.8,0,43.1,19.3,43.1,43.1v38.4C488.3,493.7,469.1,513,445.3,513z"/>
		<g>
			<circle class="st1" cx="468.5" cy="443.7" r="5.1"/>
			<circle class="st1" cx="422" cy="443.7" r="5.1"/>
		</g>
		<path class="st0" d="M422,467.2c0,0,6.1,11,23.3,11s23.3-11,23.3-11"/>
	</g>
	<g>
		<g>
			<path class="st0" d="M162.8,214.6L162.8,214.6c-23.8,0-43.1-19.3-43.1-43.1v-38.4c0-23.8,19.3-43.1,43.1-43.1h0
				c23.8,0,43.1,19.3,43.1,43.1v38.4C205.9,195.3,186.6,214.6,162.8,214.6z"/>
			<g>
				<circle class="st1" cx="186.1" cy="145.3" r="5.1"/>
				<circle class="st1" cx="139.6" cy="145.3" r="5.1"/>
			</g>
			<path class="st0" d="M139.6,168.8c0,0,6.1,11,23.3,11s23.3-11,23.3-11"/>
		</g>
		<g>
			<path class="st1" d="M107,239.1v-3.2H77.6v17c0,4.8,2.7,8.9,6.7,11v1.4H90h4.6h5.7v-1.4c2.4-1.3,4.3-3.3,5.5-5.8
				c0.4,0,0.7,0.1,1.1,0.1c5.3,0,9.5-4.3,9.5-9.5C116.4,243.4,112.2,239.2,107,239.1z M107,252.9v-10.1c3.2,0.1,5.8,2.7,5.8,5.9
				c0,3.2-2.6,5.9-5.9,5.9c0,0,0,0,0,0C106.9,254,107,253.4,107,252.9z"/>
			<path class="st2" d="M94.1,262h-3.5c-5.3,0-9.6-4.3-9.6-9.6v-13.1h22.7v13.1C103.7,257.7,99.4,262,94.1,262z"/>
			<path class="st1" d="M150.8,239.1v-3.2h-29.3v17c0,4.8,2.7,8.9,6.7,11v1.4h5.7h4.6h5.7v-1.4c2.4-1.3,4.3-3.3,5.5-5.8
				c0.4,0,0.7,0.1,1.1,0.1c5.3,0,9.5-4.3,9.5-9.5C160.3,243.4,156.1,239.2,150.8,239.1z M150.8,252.9v-10.1c3.2,0.1,5.8,2.7,5.8,5.9
				c0,3.2-2.6,5.9-5.9,5.9c0,0,0,0,0,0C150.8,254,150.8,253.4,150.8,252.9z"/>
			<path class="st2" d="M138,262h-3.5c-5.3,0-9.6-4.3-9.6-9.6v-13.1h22.7v13.1C147.5,257.7,143.3,262,138,262z"/>
			<path class="st1" d="M194.7,239.1v-3.2h-29.3v17c0,4.8,2.7,8.9,6.7,11v1.4h5.7h4.6h5.7v-1.4c2.4-1.3,4.3-3.3,5.5-5.8
				c0.4,0,0.7,0.1,1.1,0.1c5.3,0,9.5-4.3,9.5-9.5C204.2,243.4,199.9,239.2,194.7,239.1z M194.7,252.9v-10.1c3.2,0.1,5.8,2.7,5.8,5.9
				c0,3.2-2.6,5.9-5.9,5.9c0,0,0,0,0,0C194.7,254,194.7,253.4,194.7,252.9z"/>
			<path class="st2" d="M181.8,262h-3.5c-5.3,0-9.6-4.3-9.6-9.6v-13.1h22.7v13.1C191.4,257.7,187.1,262,181.8,262z"/>
			<path class="st1" d="M238.6,239.1v-3.2h-29.3v17c0,4.8,2.7,8.9,6.7,11v1.4h5.7h4.6h5.7v-1.4c2.4-1.3,4.3-3.3,5.5-5.8
				c0.4,0,0.7,0.1,1.1,0.1c5.3,0,9.5-4.3,9.5-9.5C248,243.4,243.8,239.2,238.6,239.1z M238.6,252.9v-10.1c3.2,0.1,5.8,2.7,5.8,5.9
				c0,3.2-2.6,5.9-5.9,5.9c0,0,0,0,0,0C238.5,254,238.6,253.4,238.6,252.9z"/>
			<path class="st2" d="M219.4,239.2h-6.8v13.1c0,4.3,2.9,7.9,6.8,9.1V239.2z"/>
		</g>
	</g>
	<g>
		<g>
			<path class="st0" d="M445.3,214.6L445.3,214.6c-23.8,0-43.1-19.3-43.1-43.1v-38.4c0-23.8,19.3-43.1,43.1-43.1h0
				c23.8,0,43.1,19.3,43.1,43.1v38.4C488.3,195.3,469.1,214.6,445.3,214.6z"/>
			<g>
				<circle class="st1" cx="468.5" cy="145.3" r="5.1"/>
				<circle class="st1" cx="422" cy="145.3" r="5.1"/>
			</g>
			<path class="st0" d="M422,168.8c0,0,6.1,11,23.3,11s23.3-11,23.3-11"/>
		</g>
		<g>
			<path class="st1" d="M415.3,240.5v-2.8h-25.9v15c0,4.2,2.4,7.9,5.9,9.7v1.2h5h4h5v-1.2c2.1-1.1,3.8-2.9,4.8-5.1
				c0.3,0,0.6,0.1,0.9,0.1c4.6,0,8.4-3.8,8.4-8.4C423.6,244.3,419.9,240.5,415.3,240.5z M415.3,252.6v-8.9c2.8,0,5.1,2.3,5.1,5.2
				c0,2.9-2.3,5.2-5.2,5.2c0,0,0,0,0,0C415.3,253.6,415.3,253.1,415.3,252.6z"/>
			<path class="st2" d="M403.9,260.6h-3.1c-4.7,0-8.5-3.8-8.5-8.5v-11.6h20.1v11.6C412.4,256.8,408.6,260.6,403.9,260.6z"/>
			<path class="st1" d="M454,240.5v-2.8h-25.9v15c0,4.2,2.4,7.9,5.9,9.7v1.2h5h4h5v-1.2c2.1-1.1,3.8-2.9,4.8-5.1
				c0.3,0,0.6,0.1,0.9,0.1c4.6,0,8.4-3.8,8.4-8.4C462.4,244.3,458.6,240.5,454,240.5z M454,252.6v-8.9c2.8,0,5.1,2.3,5.1,5.2
				c0,2.9-2.3,5.2-5.2,5.2c0,0,0,0,0,0C454,253.6,454,253.1,454,252.6z"/>
			<path class="st2" d="M442.7,260.6h-3.1c-4.7,0-8.5-3.8-8.5-8.5v-11.6h20.1v11.6C451.1,256.8,447.3,260.6,442.7,260.6z"/>
			<path class="st1" d="M492.8,240.5v-2.8h-25.9v15c0,4.2,2.4,7.9,5.9,9.7v1.2h5h4h5v-1.2c2.1-1.1,3.8-2.9,4.8-5.1
				c0.3,0,0.6,0.1,0.9,0.1c4.6,0,8.4-3.8,8.4-8.4C501.1,244.3,497.4,240.5,492.8,240.5z M492.8,252.6v-8.9c2.8,0,5.1,2.3,5.1,5.2
				c0,2.9-2.3,5.2-5.2,5.2c0,0,0,0,0,0C492.7,253.6,492.8,253.1,492.8,252.6z"/>
			<path class="st2" d="M477.8,240.6h-8v11.6c0,4.5,3.6,8.2,8,8.4V240.6z"/>
		</g>
	</g>
	<g>
		<path class="st1" d="M132.9,536.5v-2.8H107v15c0,4.2,2.4,7.9,5.9,9.7v1.2h5h4h5v-1.2c2.1-1.1,3.8-2.9,4.8-5.1
			c0.3,0,0.6,0.1,0.9,0.1c4.6,0,8.4-3.8,8.4-8.4C141.2,540.3,137.5,536.5,132.9,536.5z M132.9,548.6v-8.9c2.8,0,5.1,2.3,5.1,5.2
			c0,2.9-2.3,5.2-5.2,5.2c0,0,0,0,0,0C132.8,549.6,132.9,549.1,132.9,548.6z"/>
		<path class="st2" d="M121.5,556.7h-3.1c-4.7,0-8.5-3.8-8.5-8.5v-11.6H130v11.6C130,552.9,126.2,556.7,121.5,556.7z"/>
		<path class="st1" d="M171.6,536.5v-2.8h-25.9v15c0,4.2,2.4,7.9,5.9,9.7v1.2h5h4h5v-1.2c2.1-1.1,3.8-2.9,4.8-5.1
			c0.3,0,0.6,0.1,0.9,0.1c4.6,0,8.4-3.8,8.4-8.4C179.9,540.3,176.2,536.5,171.6,536.5z M171.6,548.6v-8.9c2.8,0,5.1,2.3,5.1,5.2
			c0,2.9-2.3,5.2-5.2,5.2c0,0,0,0,0,0C171.6,549.6,171.6,549.1,171.6,548.6z"/>
		<path class="st2" d="M160.2,556.7h-3.1c-4.7,0-8.5-3.8-8.5-8.5v-11.6h20.1v11.6C168.7,552.9,164.9,556.7,160.2,556.7z"/>
		<path class="st1" d="M210.3,536.5v-2.8h-25.9v15c0,4.2,2.4,7.9,5.9,9.7v1.2h5h4h5v-1.2c2.1-1.1,3.8-2.9,4.8-5.1
			c0.3,0,0.6,0.1,0.9,0.1c4.6,0,8.4-3.8,8.4-8.4C218.7,540.3,214.9,536.5,210.3,536.5z M210.3,548.6v-8.9c2.8,0,5.1,2.3,5.1,5.2
			c0,2.9-2.3,5.2-5.2,5.2c0,0,0,0,0,0C210.3,549.6,210.3,549.1,210.3,548.6z"/>
		<path class="st2" d="M191.4,536.6h-4v11.6c0,3,1.6,5.7,4,7.2V536.6z"/>
	</g>
	<g>
		<path class="st1" d="M434.7,534.8V532h-25.9v15c0,4.2,2.4,7.9,5.9,9.7v1.2h5h4h5v-1.2c2.1-1.1,3.8-2.9,4.8-5.1
			c0.3,0,0.6,0.1,0.9,0.1c4.6,0,8.4-3.8,8.4-8.4C443,538.6,439.3,534.8,434.7,534.8z M434.7,546.9V538c2.8,0,5.1,2.3,5.1,5.2
			c0,2.9-2.3,5.2-5.2,5.2c0,0,0,0,0,0C434.6,547.9,434.7,547.4,434.7,546.9z"/>
		<path class="st2" d="M423.3,554.9h-3.1c-4.7,0-8.5-3.8-8.5-8.5v-11.6h20.1v11.6C431.8,551.2,428,554.9,423.3,554.9z"/>
		<path class="st1" d="M473.4,534.8V532h-25.9v15c0,4.2,2.4,7.9,5.9,9.7v1.2h5h4h5v-1.2c2.1-1.1,3.8-2.9,4.8-5.1
			c0.3,0,0.6,0.1,0.9,0.1c4.6,0,8.4-3.8,8.4-8.4C481.7,538.6,478,534.8,473.4,534.8z M473.4,546.9V538c2.8,0,5.1,2.3,5.1,5.2
			c0,2.9-2.3,5.2-5.2,5.2c0,0,0,0,0,0C473.4,547.9,473.4,547.4,473.4,546.9z"/>
		<path class="st2" d="M462,554.9h-3.1c-4.7,0-8.5-3.8-8.5-8.5v-11.6h20.1v11.6C470.5,551.2,466.7,554.9,462,554.9z"/>
	</g>
	<g id="FINLAND_3_">
		<g>
			<g>
				<defs>
					<rect id="SVGID_1_" x="144.9" y="41" width="35.9" height="20.9"/>
				</defs>
				<clipPath id="SVGID_00000177442406640752766950000008043514195924953241_">
					<use xlink:href="#SVGID_1_"  style="overflow:visible;"/>
				</clipPath>
				
					<rect x="144.9" y="41" style="clip-path:url(#SVGID_00000177442406640752766950000008043514195924953241_);fill:#FFFFFF;" width="35.9" height="20.9"/>
				<polygon style="clip-path:url(#SVGID_00000177442406640752766950000008043514195924953241_);fill:#1F357E;" points="155,41 
					155,48.5 144.9,48.5 144.9,54.4 155,54.4 155,61.9 160.9,61.9 160.9,54.4 180.8,54.4 180.8,48.5 160.9,48.5 160.9,41 				"/>
			</g>
		</g>
	</g>
	<g id="NORWAY_2_">
		<g>
			<g>
				<defs>
					<rect id="SVGID_00000148659081884996618880000001848216508227571871_" x="372.3" y="41" width="35.9" height="20.9"/>
				</defs>
				<clipPath id="SVGID_00000125594150266488410230000011563640744557718418_">
					<use xlink:href="#SVGID_00000148659081884996618880000001848216508227571871_"  style="overflow:visible;"/>
				</clipPath>
				
					<rect x="372.3" y="41" style="clip-path:url(#SVGID_00000125594150266488410230000011563640744557718418_);fill:#DC1C37;" width="35.9" height="20.9"/>
				
					<rect x="380.1" y="41" style="clip-path:url(#SVGID_00000125594150266488410230000011563640744557718418_);fill:#FFFFFF;" width="5.2" height="20.9"/>
				
					<rect x="372.3" y="48.8" style="clip-path:url(#SVGID_00000125594150266488410230000011563640744557718418_);fill:#FFFFFF;" width="35.9" height="5.2"/>
				
					<rect x="381.4" y="41" style="clip-path:url(#SVGID_00000125594150266488410230000011563640744557718418_);fill:#192967;" width="2.6" height="20.9"/>
				
					<rect x="372.3" y="50.1" style="clip-path:url(#SVGID_00000125594150266488410230000011563640744557718418_);fill:#192967;" width="35.9" height="2.6"/>
			</g>
		</g>
	</g>
	<g id="AUSTRIA_3_">
		<g>
			<g>
				<defs>
					<rect id="SVGID_00000074429923582655024120000012809796970185559429_" x="427.3" y="41" width="35.9" height="20.9"/>
				</defs>
				<clipPath id="SVGID_00000158021325685771186910000014122341187171553672_">
					<use xlink:href="#SVGID_00000074429923582655024120000012809796970185559429_"  style="overflow:visible;"/>
				</clipPath>
				
					<rect x="427.3" y="41" style="clip-path:url(#SVGID_00000158021325685771186910000014122341187171553672_);fill:#ED2923;" width="35.9" height="7"/>
				
					<rect x="427.3" y="54.9" style="clip-path:url(#SVGID_00000158021325685771186910000014122341187171553672_);fill:#ED2923;" width="35.9" height="7"/>
				
					<rect x="427.3" y="48" style="clip-path:url(#SVGID_00000158021325685771186910000014122341187171553672_);fill:#FFFFFF;" width="35.9" height="7"/>
			</g>
		</g>
	</g>
	<g id="DENMARK_2_">
		<g>
			<g>
				<defs>
					<rect id="SVGID_00000078026676863451473700000010727586489140973461_" x="482.4" y="41" width="35.9" height="20.9"/>
				</defs>
				<clipPath id="SVGID_00000048462071514316387880000002706693266598091136_">
					<use xlink:href="#SVGID_00000078026676863451473700000010727586489140973461_"  style="overflow:visible;"/>
				</clipPath>
				
					<rect x="482.4" y="41" style="clip-path:url(#SVGID_00000048462071514316387880000002706693266598091136_);fill:#BE003A;" width="35.9" height="20.9"/>
				
					<rect x="494" y="41" style="clip-path:url(#SVGID_00000048462071514316387880000002706693266598091136_);fill:#FFFFFF;" width="3.9" height="20.9"/>
				
					<rect x="482.4" y="49.5" style="clip-path:url(#SVGID_00000048462071514316387880000002706693266598091136_);fill:#FFFFFF;" width="35.9" height="3.9"/>
			</g>
		</g>
	</g>
	<g id="SWITZERLAND_2_">
		<g>
			<g>
				<defs>
					<rect id="SVGID_00000037680262002421916300000003990223655774269314_" x="144.9" y="338" width="35.9" height="20.9"/>
				</defs>
				<clipPath id="SVGID_00000043435775660442961180000009195185582096728709_">
					<use xlink:href="#SVGID_00000037680262002421916300000003990223655774269314_"  style="overflow:visible;"/>
				</clipPath>
				
					<rect x="144.9" y="338" style="clip-path:url(#SVGID_00000043435775660442961180000009195185582096728709_);fill:#C6001E;" width="35.9" height="20.9"/>
				<polygon style="clip-path:url(#SVGID_00000043435775660442961180000009195185582096728709_);fill:#FFFFFF;" points="
					156.3,346.5 160.9,346.5 160.9,342 164.8,342 164.8,346.5 169.4,346.5 169.4,350.5 164.8,350.5 164.8,355 160.9,355 
					160.9,350.5 156.3,350.5 				"/>
			</g>
		</g>
	</g>
	<g id="SWEDEN_3_">
		<g>
			<g>
				<defs>
					<rect id="SVGID_00000014609217338780404260000003606323059332738999_" x="427.3" y="338" width="35.9" height="20.9"/>
				</defs>
				<clipPath id="SVGID_00000174569243309043119670000014066285644477924529_">
					<use xlink:href="#SVGID_00000014609217338780404260000003606323059332738999_"  style="overflow:visible;"/>
				</clipPath>
				
					<rect x="427.3" y="338" style="clip-path:url(#SVGID_00000174569243309043119670000014066285644477924529_);fill:#2D5A95;" width="35.9" height="20.9"/>
				
					<rect x="437.8" y="338" style="clip-path:url(#SVGID_00000174569243309043119670000014066285644477924529_);fill:#F3D02F;" width="4.2" height="20.9"/>
				
					<rect x="427.3" y="346.4" style="clip-path:url(#SVGID_00000174569243309043119670000014066285644477924529_);fill:#F3D02F;" width="35.9" height="4.2"/>
			</g>
		</g>
	</g>
</g>
</svg>
