<?xml version="1.0" encoding="utf-8"?>
<!-- Generator: Adobe Illustrator 26.5.0, SVG Export Plug-In . SVG Version: 6.00 Build 0)  -->
<svg version="1.1" id="Layer_1" xmlns="http://www.w3.org/2000/svg" xmlns:xlink="http://www.w3.org/1999/xlink" x="0px" y="0px"
	 viewBox="0 0 600 600" style="enable-background:new 0 0 600 600;" xml:space="preserve">
<style type="text/css">
	.st0{fill:#B85C48;}
	.st1{fill:#B7412E;}
	.st2{fill:#B84F3B;}
	.st3{fill:#AD7C59;}
	.st4{fill:#AA6535;}
	.st5{fill:#AC7147;}
	.st6{fill:#FFFFFF;}
	.st7{font-family:'SourceSans3-Bold';}
	.st8{font-size:14px;}
	.st9{font-family:'SourceSans3-SemiBold';}
	.st10{font-size:12px;}
	.st11{font-family:'SourceSans3-Regular';}
	.st12{font-size:10px;}
</style>
<path class="st0" d="M195.4,109.5l-32.7-61.4c-16.8,9.2-32.7,20.1-47.4,32.4l45.1,52.9C171.3,124.4,183,116.4,195.4,109.5z"/>
<path class="st1" d="M175.5,232.4c-37.1,68.5-12,154.1,56,191.8l32.5-61.5c-11.2-6.5-20.5-15.9-26.9-27.3
	c-19.3-34.5-7.4-77.9,26.5-97.8l-32.7-61.4C207.5,189.3,188.3,208.8,175.5,232.4z"/>
<path class="st2" d="M230.1,426.8c-7.9-4.4-15.3-9.4-22.3-15.2L163,464.7c10.8,9,22.4,16.9,34.7,23.6L230.1,426.8z"/>
<path class="st0" d="M196.3,491c-12.5-6.8-24.3-14.8-35.3-24l-44.9,53c14.8,12.4,30.8,23.2,47.7,32.4L196.3,491z"/>
<path class="st2" d="M229.5,173.5l-32.7-61.4c-68,37.5-110.5,108.9-110.9,186.7l69.5-0.1C155.8,246.7,184.2,198.9,229.5,173.5z"/>
<path class="st3" d="M200.7,106.7c12.7-6.5,26-11.8,39.7-15.8L221.7,24c-18.6,5.3-36.5,12.5-53.6,21.3L200.7,106.7z"/>
<path class="st3" d="M169.1,555.2c17.1,8.8,35,15.8,53.5,21.1l18.5-67c-13.7-3.9-26.9-9.1-39.5-15.5L169.1,555.2z"/>
<path class="st4" d="M426.4,234.6c-35.9-69.2-120.8-96.4-190.2-61.2l32.7,61.4c20.2-9.8,43.9-9.6,64,0.5
	c35.8,18,50.2,61.5,32.3,97.3c-17.7,35.3-60.4,49.8-95.9,33L236.8,427c40.6,20.3,88.6,20,128.9-0.9
	C435.4,389.9,462.6,304.2,426.4,234.6z"/>
<path class="st5" d="M490.4,200.5C435.7,96,306.9,55.3,202.1,109.3l32.7,61.4c34.1-17.3,73.8-20.5,110.2-8.7
	c76.2,24.7,118,106.4,93.3,182.6l65.9,22.1C522.2,311.7,517.3,251.8,490.4,200.5z"/>
<path class="st5" d="M235.4,429.6L203,491.1c40.4,20.6,86.2,27.9,131,20.8l-11.4-68.6C292.8,447.9,262.4,443.1,235.4,429.6z"/>
<path class="st5" d="M503.3,369.6c-25.4,74.1-89.2,128.5-166.4,141.8l-11.4-68.6c51.8-9.1,94.6-45.6,111.8-95.3L503.3,369.6z"/>
<path class="st2" d="M160.7,462.8c-47-40.3-74.2-99-74.8-160.9l69.5-0.1c0.5,41.5,18.8,80.8,50.2,107.9L160.7,462.8z"/>
<path class="st3" d="M224.6,23.2c19-5.2,38.6-8.5,58.3-9.7l3.9,69.4c-14.7,0.9-29.3,3.3-43.5,7.2L224.6,23.2z"/>
<path class="st3" d="M285.9,13.4c19.7-1,39.5,0,59,3.1l-11.1,68.6c-14.5-2.3-29.3-3-44-2.3L285.9,13.4z"/>
<path class="st3" d="M347.8,16.9c19.5,3.3,38.6,8.5,57,15.7l-25.6,64.6c-13.7-5.3-27.9-9.3-42.5-11.7L347.8,16.9z"/>
<path class="st3" d="M407.5,33.8c18.3,7.4,35.8,16.6,52.2,27.6l-38.9,57.6c-12.3-8.2-25.3-15-39-20.6L407.5,33.8z"/>
<path class="st3" d="M462.3,63c16.3,11.1,31.4,23.9,45.1,38.2L457,149.1c-10.2-10.6-21.5-20.1-33.6-28.5L462.3,63z"/>
<path class="st3" d="M509.4,103.4c13.5,14.4,25.5,30.1,35.8,47l-59.5,35.9c-7.7-12.5-16.6-24.3-26.7-35L509.4,103.4z"/>
<path class="st3" d="M546.8,152.9c10.1,17,18.5,34.9,24.9,53.6l-65.8,22.3c-4.8-13.9-11-27.3-18.6-39.9L546.8,152.9z"/>
<path class="st3" d="M572.7,209.3c6.2,18.7,10.5,38.1,12.8,57.7l-69.1,7.6c-1.7-14.6-4.9-29-9.5-43L572.7,209.3z"/>
<path class="st3" d="M585.8,270c2.1,19.6,2.1,39.4,0.1,59.1l-69.1-7.4c1.5-14.6,1.4-29.4-0.1-44L585.8,270z"/>
<path class="st3" d="M585.6,332c-2.2,19.6-6.4,39-12.6,57.7l-65.9-22.1c4.6-14,7.7-28.4,9.4-43L585.6,332z"/>
<path class="st3" d="M572,392.6c-6.4,18.7-14.7,36.7-24.7,53.7l-59.6-35.7c7.5-12.7,13.7-26.1,18.4-40L572,392.6z"/>
<path class="st3" d="M545.8,448.8c-10.2,16.9-22.2,32.7-35.7,47.1l-50.5-47.7c10-10.8,18.9-22.5,26.6-35.1L545.8,448.8z"/>
<path class="st3" d="M508.1,498.1c-13.6,14.3-28.7,27.1-45,38.3L424,479c12.1-8.4,23.3-17.9,33.5-28.6L508.1,498.1z"/>
<path class="st3" d="M460.6,538.1c-16.4,11-33.9,20.3-52.1,27.8l-25.8-64.5c13.6-5.6,26.7-12.5,38.9-20.7L460.6,538.1z"/>
<path class="st3" d="M405.7,567c-18.4,7.2-37.4,12.6-56.9,15.9l-11.4-68.6c14.5-2.5,28.7-6.5,42.4-11.9L405.7,567z"/>
<path class="st3" d="M345.8,583.4c-19.5,3.1-39.3,4.2-59,3.3l3.6-69.4c14.7,0.7,29.4-0.2,44-2.5L345.8,583.4z"/>
<path class="st3" d="M283.9,586.5c-19.7-1.1-39.3-4.3-58.3-9.5l18.5-67c14.2,3.8,28.8,6.2,43.5,7.1L283.9,586.5z"/>
<path class="st0" d="M113.8,518.1c-15-12.8-28.6-27.2-40.7-42.8l55.3-42.2c9,11.6,19.2,22.3,30.3,31.9L113.8,518.1z"/>
<path class="st0" d="M71.3,472.9c-11.9-15.8-22.1-32.7-30.5-50.6l63-29.3c6.3,13.3,13.9,25.9,22.8,37.7L71.3,472.9z"/>
<path class="st0" d="M39.5,419.6c-8.2-17.9-14.6-36.7-19-56l67.9-15.1c3.3,14.3,8,28.3,14.1,41.7L39.5,419.6z"/>
<path class="st0" d="M19.9,360.7c-4.2-19.3-6.4-39-6.5-58.7l69.5-0.1c0.1,14.7,1.7,29.4,4.8,43.8L19.9,360.7z"/>
<path class="st0" d="M13.4,299c0.1-19.7,2.2-39.4,6.3-58.7l67.9,14.8c-3,14.4-4.6,29.1-4.7,43.8L13.4,299z"/>
<path class="st0" d="M20.3,237.3c4.3-19.3,10.6-38,18.8-56l63.1,29.1c-6.1,13.4-10.8,27.4-14,41.8L20.3,237.3z"/>
<path class="st0" d="M40.3,178.6c8.4-17.9,18.5-34.9,30.4-50.7l55.4,42c-8.8,11.8-16.4,24.5-22.6,37.8L40.3,178.6z"/>
<path class="st0" d="M72.5,125.5c12-15.7,25.6-30.1,40.6-43l45.1,52.9c-11.1,9.6-21.3,20.4-30.2,32L72.5,125.5z"/>
<g id="labels" transform="translate(402.5,300)">
	<text transform="matrix(1 -1.738236e-03 1.738236e-03 1 -19.0928 4.8761)" class="st6 st7 st8">Arábica</text>
	<text transform="matrix(1 -1.738317e-03 1.738317e-03 1 -234.5264 2.9947)" class="st6 st7 st8">Robusta</text>
	<text transform="matrix(0.6461 -0.7633 0.7633 0.6461 6.1929 -121.7649)" class="st6 st9 st10">América</text>
	<text transform="matrix(0.6487 0.761 -0.761 0.6487 4.1314 130.8058)" class="st6 st9 st10">África</text>
	<text transform="matrix(0.1601 -0.9871 0.9871 0.1601 -128.7321 189.1557)" class="st6 st9 st10">Asia</text>
	<text transform="matrix(0.5597 -0.8287 0.8287 0.5597 -210.5155 167.6295)" class="st6 st9 st10">América</text>
	<text transform="matrix(0.9068 -0.4215 0.4215 0.9068 -276.3815 85.4052)" class="st6 st9 st10">África</text>
	<text transform="matrix(0.8578 0.5141 -0.5141 0.8578 -267.9793 -94.7434)" class="st6 st9 st10">Asia</text>
	<text transform="matrix(-0.3718 -0.9283 0.9283 -0.3718 -187.2551 -223.3764)" class="st6 st11 st12">Bolivia</text>
	<text transform="matrix(-0.1635 -0.9865 0.9865 -0.1635 -136.1997 -230.1551)" class="st6 st11 st12">Colombia</text>
	<text transform="matrix(5.240311e-02 -0.9986 0.9986 5.240311e-02 -86.1017 -228.7719)" class="st6 st11 st12">Costa Rica</text>
	<text transform="matrix(0.2659 -0.964 0.964 0.2659 -35.7464 -225.6012)" class="st6 st11 st12">Ecuador</text>
	<text transform="matrix(0.4669 -0.8843 0.8843 0.4669 7.9565 -199.9178)" class="st6 st11 st12">El Salvador</text>
	<text transform="matrix(0.6461 -0.7633 0.7633 0.6461 49.0782 -172.4319)" class="st6 st11 st12">Guatemala</text>
	<text transform="matrix(0.795 -0.6066 0.6066 0.795 87.2536 -139.4411)" class="st6 st11 st12">Jamaica</text>
	<text transform="matrix(0.9068 -0.4215 0.4215 0.9068 109.0182 -93.7139)" class="st6 st11 st12">Nicaragua</text>
	<text transform="matrix(0.9762 -0.2167 0.2167 0.9762 128.2967 -47.0391)" class="st6 st11 st12">Panamá</text>
	<text transform="matrix(1 -1.738236e-03 1.738236e-03 1 141.0956 3.5904)" class="st6 st11 st12">Perú</text>
	<text transform="matrix(0.977 0.2133 -0.2133 0.977 122.0419 53.0261)" class="st6 st11 st12">Venezuela</text>
	<text transform="matrix(0.9083 0.4183 -0.4183 0.9083 112.5582 103.2685)" class="st6 st11 st12">Etiopía</text>
	<text transform="matrix(0.7971 0.6038 -0.6038 0.7971 87.5543 148.6786)" class="st6 st11 st12">Kenia</text>
	<text transform="matrix(0.6487 0.761 -0.761 0.6487 40.8844 173.9223)" class="st6 st11 st12">Mozambique</text>
	<text transform="matrix(-0.4699 -0.8827 0.8827 -0.4699 30.1173 239.8555)" class="st6 st11 st12">Tanzania</text>
	<text transform="matrix(-0.2692 -0.9631 0.9631 -0.2692 -25.4612 259.364)" class="st6 st11 st12">Zambia</text>
	<text transform="matrix(-5.587456e-02 -0.9984 0.9984 -5.587456e-02 -83.3344 263.9545)" class="st6 st11 st12">India</text>
	<text transform="matrix(0.1601 -0.9871 0.9871 0.1601 -142.2512 272.5239)" class="st6 st11 st12">Indonesia</text>
	<text transform="matrix(0.3685 -0.9296 0.9296 0.3685 -197.6428 251.8366)" class="st6 st11 st12">Yemen</text>
	<text transform="matrix(0.5597 -0.8287 0.8287 0.5597 -247.8311 222.8717)" class="st6 st11 st12">Brasil</text>
	<text transform="matrix(0.7248 -0.689 0.689 0.7248 -294.558 188.4496)" class="st6 st11 st12">Angola</text>
	<text transform="matrix(0.856 -0.517 0.517 0.856 -334.8453 145.2564)" class="st6 st11 st12">Camerún</text>
	<text transform="matrix(0.9471 -0.3209 0.3209 0.9471 -368.9063 96.1094)" class="st6 st11 st12">Costa de Marfil</text>
	<text transform="matrix(0.9939 -0.1098 0.1098 0.9939 -371.2958 33.7731)" class="st6 st11 st12">Uganda</text>
	<text transform="matrix(0.9943 0.1064 -0.1064 0.9943 -365.628 -24.1728)" class="st6 st11 st12">India</text>
	<text transform="matrix(0.9482 0.3177 -0.3177 0.9482 -354.004 -80.1667)" class="st6 st11 st12">Java</text>
	<text transform="matrix(0.8578 0.5141 -0.5141 0.8578 -339.9412 -137.8718)" class="st6 st11 st12">Sri Lanka</text>
	<text transform="matrix(0.7272 0.6864 -0.6864 0.7272 -303.1229 -184.2455)" class="st6 st11 st12">Sumatra</text>
	<text transform="matrix(0.5626 0.8267 -0.8267 0.5626 -258.454 -222.6165)" class="st6 st11 st12">Vietnam</text>
</g>
</svg>
